M48
; DRILL file {KiCad (5.1.0)-1} date 2/17/2020 8:17:48 PM
; FORMAT={-:-/ absolute / inch / decimal}
; #@! TF.CreationDate,2020-02-17T20:17:48-08:00
; #@! TF.GenerationSoftware,Kicad,Pcbnew,(5.1.0)-1
FMAT,2
INCH
T1C0.0157
T2C0.0320
T3C0.0400
T4C0.1200
%
G90
G05
T1
X6.0875Y-3.8875
X6.1264Y-3.8264
X6.1375Y-3.925
T2
X4.9Y-3.6
X4.9Y-4.2
X5.0Y-3.6
X5.0Y-4.2
X5.1Y-3.6
X5.1Y-4.2
X5.2Y-3.6
X5.2Y-4.2
X5.3Y-3.6
X5.3Y-4.2
X5.4Y-3.6
X5.4Y-4.2
X5.5Y-3.6
X5.5Y-4.2
X5.6Y-3.6
X5.6Y-4.2
X5.7Y-3.6
X5.7Y-4.2
X5.8Y-3.6
X5.8Y-4.2
X5.9Y-3.6
X5.9Y-4.2
X6.0Y-3.6
X6.0Y-4.2
X6.1Y-3.6
X6.1Y-4.2
X6.2Y-3.6
X6.2Y-4.2
X4.7Y-3.6
X4.7Y-3.8
T3
X4.7Y-3.9875
X4.7Y-4.0875
X4.9Y-4.5
X4.9Y-4.6
X5.0Y-4.5
X5.0Y-4.6
X5.1Y-4.5
X5.1Y-4.6
X5.2Y-4.5
X5.2Y-4.6
X5.3Y-4.5
X5.3Y-4.6
X5.4Y-4.5
X5.4Y-4.6
X5.5Y-4.5
X5.5Y-4.6
X5.6Y-4.5
X5.6Y-4.6
X5.7Y-4.5
X5.7Y-4.6
X5.8Y-4.5
X5.8Y-4.6
X5.9Y-4.5
X5.9Y-4.6
X6.0Y-4.5
X6.0Y-4.6
X6.1Y-4.5
X6.1Y-4.6
X4.6Y-3.8875
X4.6Y-3.9875
X4.6Y-4.0875
T4
X6.375Y-4.3
X4.625Y-4.3
T0
M30
